<?xml version="1.0" encoding="UTF-8" standalone="no"?>
<!DOCTYPE svg PUBLIC "-//W3C//DTD SVG 1.1//EN"
 "http://www.w3.org/Graphics/SVG/1.1/DTD/svg11.dtd">
<!-- Generated by graphviz version 14.1.4 (20260321.0153)
 -->
<!-- Title: NFA Pages: 1 -->
<svg width="619pt" height="247pt"
 viewBox="0.00 0.00 619.00 247.00" xmlns="http://www.w3.org/2000/svg" xmlns:xlink="http://www.w3.org/1999/xlink">
<g id="graph0" class="graph" transform="scale(1 1) rotate(0) translate(4 243.22)">
<title>NFA</title>
<polygon fill="white" stroke="none" points="-4,4 -4,-243.22 614.75,-243.22 614.75,4 -4,4"/>
<!-- 0 -->
<g id="node1" class="node">
<title>0</title>
<ellipse fill="none" stroke="black" cx="18" cy="-80" rx="18" ry="18"/>
<text xml:space="preserve" text-anchor="middle" x="18" y="-74.58" font-family="Helvetica,Arial,sans-serif" font-size="14.00">0</text>
</g>
<!-- 1 -->
<g id="node2" class="node">
<title>1</title>
<ellipse fill="none" stroke="black" cx="97.5" cy="-114" rx="18" ry="18"/>
<text xml:space="preserve" text-anchor="middle" x="97.5" y="-108.58" font-family="Helvetica,Arial,sans-serif" font-size="14.00">1</text>
</g>
<!-- 0&#45;&gt;1 -->
<g id="edge1" class="edge">
<title>0&#45;&gt;1</title>
<path fill="none" stroke="black" d="M35.06,-87.04C45.14,-91.47 58.38,-97.28 69.99,-102.37"/>
<polygon fill="black" stroke="black" points="68.51,-105.54 79.08,-106.36 71.33,-99.13 68.51,-105.54"/>
<text xml:space="preserve" text-anchor="middle" x="57.75" y="-100.47" font-family="Helvetica,Arial,sans-serif" font-size="14.00">a</text>
</g>
<!-- 5 -->
<g id="node6" class="node">
<title>5</title>
<ellipse fill="none" stroke="black" cx="175.5" cy="-125" rx="18" ry="18"/>
<text xml:space="preserve" text-anchor="middle" x="175.5" y="-119.58" font-family="Helvetica,Arial,sans-serif" font-size="14.00">5</text>
</g>
<!-- 1&#45;&gt;5 -->
<g id="edge5" class="edge">
<title>1&#45;&gt;5</title>
<path fill="none" stroke="black" d="M115.75,-116.5C124.69,-117.79 135.84,-119.4 146.01,-120.88"/>
<polygon fill="black" stroke="black" points="145.43,-124.33 155.82,-122.3 146.43,-117.4 145.43,-124.33"/>
<text xml:space="preserve" text-anchor="middle" x="136.5" y="-122.28" font-family="Helvetica,Arial,sans-serif" font-size="14.00">ε</text>
</g>
<!-- 2 -->
<g id="node3" class="node">
<title>2</title>
<ellipse fill="none" stroke="black" cx="333" cy="-82" rx="18" ry="18"/>
<text xml:space="preserve" text-anchor="middle" x="333" y="-76.58" font-family="Helvetica,Arial,sans-serif" font-size="14.00">2</text>
</g>
<!-- 3 -->
<g id="node4" class="node">
<title>3</title>
<ellipse fill="none" stroke="black" cx="415.13" cy="-112" rx="18" ry="18"/>
<text xml:space="preserve" text-anchor="middle" x="415.13" y="-106.58" font-family="Helvetica,Arial,sans-serif" font-size="14.00">3</text>
</g>
<!-- 2&#45;&gt;3 -->
<g id="edge2" class="edge">
<title>2&#45;&gt;3</title>
<path fill="none" stroke="black" d="M350.21,-88.07C360.86,-92.06 375.03,-97.36 387.33,-101.97"/>
<polygon fill="black" stroke="black" points="385.92,-105.18 396.52,-105.41 388.38,-98.62 385.92,-105.18"/>
<text xml:space="preserve" text-anchor="middle" x="372.75" y="-100.35" font-family="Helvetica,Arial,sans-serif" font-size="14.00">b</text>
</g>
<!-- 3&#45;&gt;5 -->
<g id="edge6" class="edge">
<title>3&#45;&gt;5</title>
<path fill="none" stroke="black" d="M396.95,-112.94C356.55,-115.15 255.16,-120.7 205.21,-123.43"/>
<polygon fill="black" stroke="black" points="205.28,-119.92 195.48,-123.96 205.66,-126.91 205.28,-119.92"/>
<text xml:space="preserve" text-anchor="middle" x="293.25" y="-121.25" font-family="Helvetica,Arial,sans-serif" font-size="14.00">ε</text>
</g>
<!-- 4 -->
<g id="node5" class="node">
<title>4</title>
<ellipse fill="none" stroke="black" cx="253.5" cy="-73" rx="18" ry="18"/>
<text xml:space="preserve" text-anchor="middle" x="253.5" y="-67.58" font-family="Helvetica,Arial,sans-serif" font-size="14.00">4</text>
</g>
<!-- 4&#45;&gt;0 -->
<g id="edge3" class="edge">
<title>4&#45;&gt;0</title>
<path fill="none" stroke="black" d="M235.31,-73.52C195.47,-74.71 96.54,-77.68 47.5,-79.15"/>
<polygon fill="black" stroke="black" points="47.57,-75.64 37.68,-79.44 47.78,-82.64 47.57,-75.64"/>
<text xml:space="preserve" text-anchor="middle" x="136.5" y="-78.95" font-family="Helvetica,Arial,sans-serif" font-size="14.00">ε</text>
</g>
<!-- 4&#45;&gt;2 -->
<g id="edge4" class="edge">
<title>4&#45;&gt;2</title>
<path fill="none" stroke="black" d="M271.7,-75C281.03,-76.08 292.81,-77.45 303.47,-78.69"/>
<polygon fill="black" stroke="black" points="303.01,-82.16 313.34,-79.83 303.82,-75.2 303.01,-82.16"/>
<text xml:space="preserve" text-anchor="middle" x="293.25" y="-80.22" font-family="Helvetica,Arial,sans-serif" font-size="14.00">ε</text>
</g>
<!-- 5&#45;&gt;4 -->
<g id="edge8" class="edge">
<title>5&#45;&gt;4</title>
<path fill="none" stroke="black" d="M190.23,-114C196.59,-109.03 204.32,-103.19 211.5,-98.25 216.75,-94.64 222.51,-90.94 228.01,-87.52"/>
<polygon fill="black" stroke="black" points="229.46,-90.74 236.18,-82.55 225.81,-84.77 229.46,-90.74"/>
<text xml:space="preserve" text-anchor="middle" x="214.5" y="-100.7" font-family="Helvetica,Arial,sans-serif" font-size="14.00">ε</text>
</g>
<!-- 7 -->
<g id="node8" class="node">
<title>7</title>
<ellipse fill="none" stroke="black" cx="253.5" cy="-174" rx="18" ry="18"/>
<text xml:space="preserve" text-anchor="middle" x="253.5" y="-168.57" font-family="Helvetica,Arial,sans-serif" font-size="14.00">7</text>
</g>
<!-- 5&#45;&gt;7 -->
<g id="edge9" class="edge">
<title>5&#45;&gt;7</title>
<path fill="none" stroke="black" d="M191.15,-134.45C201.67,-141.23 216.07,-150.52 228.29,-158.39"/>
<polygon fill="black" stroke="black" points="226.32,-161.28 236.62,-163.76 230.11,-155.4 226.32,-161.28"/>
<text xml:space="preserve" text-anchor="middle" x="214.5" y="-153.42" font-family="Helvetica,Arial,sans-serif" font-size="14.00">ε</text>
</g>
<!-- 6 -->
<g id="node7" class="node">
<title>6</title>
<ellipse fill="lightgreen" stroke="green" cx="175.5" cy="-18" rx="18" ry="18"/>
<text xml:space="preserve" text-anchor="middle" x="175.5" y="-12.57" font-family="Helvetica,Arial,sans-serif" font-size="14.00">6</text>
</g>
<!-- 6&#45;&gt;4 -->
<g id="edge7" class="edge">
<title>6&#45;&gt;4</title>
<path fill="none" stroke="black" d="M193.33,-22.72C201.1,-25.37 210.2,-29.19 217.5,-34.25 223.76,-38.59 229.67,-44.26 234.8,-49.91"/>
<polygon fill="black" stroke="black" points="232.04,-52.06 241.17,-57.43 237.38,-47.54 232.04,-52.06"/>
<text xml:space="preserve" text-anchor="middle" x="214.5" y="-36.7" font-family="Helvetica,Arial,sans-serif" font-size="14.00">ε</text>
</g>
<!-- 9 -->
<g id="node9" class="node">
<title>9</title>
<ellipse fill="none" stroke="black" cx="333" cy="-174" rx="18" ry="18"/>
<text xml:space="preserve" text-anchor="middle" x="333" y="-168.57" font-family="Helvetica,Arial,sans-serif" font-size="14.00">9</text>
</g>
<!-- 7&#45;&gt;9 -->
<g id="edge10" class="edge">
<title>7&#45;&gt;9</title>
<path fill="none" stroke="black" d="M271.7,-174C280.97,-174 292.64,-174 303.25,-174"/>
<polygon fill="black" stroke="black" points="303.07,-177.5 313.07,-174 303.07,-170.5 303.07,-177.5"/>
<text xml:space="preserve" text-anchor="middle" x="293.25" y="-176.45" font-family="Helvetica,Arial,sans-serif" font-size="14.00">a</text>
</g>
<!-- 10 -->
<g id="node10" class="node">
<title>10</title>
<ellipse fill="none" stroke="black" cx="415.13" cy="-212" rx="20.63" ry="20.63"/>
<text xml:space="preserve" text-anchor="middle" x="415.13" y="-206.57" font-family="Helvetica,Arial,sans-serif" font-size="14.00">10</text>
</g>
<!-- 9&#45;&gt;10 -->
<g id="edge14" class="edge">
<title>9&#45;&gt;10</title>
<path fill="none" stroke="black" d="M349.83,-181.51C360.13,-186.39 373.85,-192.9 385.98,-198.65"/>
<polygon fill="black" stroke="black" points="384.19,-201.68 394.72,-202.8 387.19,-195.35 384.19,-201.68"/>
<text xml:space="preserve" text-anchor="middle" x="372.75" y="-196.59" font-family="Helvetica,Arial,sans-serif" font-size="14.00">ε</text>
</g>
<!-- 13 -->
<g id="node12" class="node">
<title>13</title>
<ellipse fill="none" stroke="black" cx="586.13" cy="-179" rx="20.63" ry="20.63"/>
<ellipse fill="none" stroke="black" cx="586.13" cy="-179" rx="24.63" ry="24.63"/>
<text xml:space="preserve" text-anchor="middle" x="586.13" y="-173.57" font-family="Helvetica,Arial,sans-serif" font-size="14.00">13</text>
</g>
<!-- 9&#45;&gt;13 -->
<g id="edge15" class="edge">
<title>9&#45;&gt;13</title>
<path fill="none" stroke="black" d="M351.26,-174.34C392.14,-175.16 495.54,-177.22 550.13,-178.3"/>
<polygon fill="black" stroke="black" points="549.73,-181.8 559.8,-178.5 549.87,-174.8 549.73,-181.8"/>
<text xml:space="preserve" text-anchor="middle" x="457.5" y="-178.95" font-family="Helvetica,Arial,sans-serif" font-size="14.00">ε</text>
</g>
<!-- 11 -->
<g id="node11" class="node">
<title>11</title>
<ellipse fill="none" stroke="black" cx="499.38" cy="-211" rx="20.13" ry="20.13"/>
<text xml:space="preserve" text-anchor="middle" x="499.38" y="-205.57" font-family="Helvetica,Arial,sans-serif" font-size="14.00">11</text>
</g>
<!-- 10&#45;&gt;11 -->
<g id="edge11" class="edge">
<title>10&#45;&gt;11</title>
<path fill="none" stroke="black" d="M435.86,-208.59C443.74,-207.57 452.91,-206.83 461.25,-207.25 463.34,-207.36 465.5,-207.49 467.67,-207.66"/>
<polygon fill="black" stroke="black" points="467.35,-211.14 477.63,-208.55 467.98,-204.17 467.35,-211.14"/>
<text xml:space="preserve" text-anchor="middle" x="457.5" y="-209.7" font-family="Helvetica,Arial,sans-serif" font-size="14.00">b</text>
</g>
<!-- 11&#45;&gt;10 -->
<g id="edge12" class="edge">
<title>11&#45;&gt;10</title>
<path fill="none" stroke="black" d="M480.15,-218.14C474.22,-220.13 467.54,-222.01 461.25,-223 456.09,-223.81 450.66,-223.51 445.41,-222.61"/>
<polygon fill="black" stroke="black" points="446.45,-219.26 435.9,-220.23 444.75,-226.05 446.45,-219.26"/>
<text xml:space="preserve" text-anchor="middle" x="457.5" y="-225.92" font-family="Helvetica,Arial,sans-serif" font-size="14.00">ε</text>
</g>
<!-- 11&#45;&gt;13 -->
<g id="edge13" class="edge">
<title>11&#45;&gt;13</title>
<path fill="none" stroke="black" d="M518.77,-204.06C528.51,-200.38 540.77,-195.75 552.09,-191.47"/>
<polygon fill="black" stroke="black" points="553.01,-194.87 561.13,-188.06 550.54,-188.32 553.01,-194.87"/>
<text xml:space="preserve" text-anchor="middle" x="540.5" y="-199.37" font-family="Helvetica,Arial,sans-serif" font-size="14.00">ε</text>
</g>
</g>
</svg>
